<?xml version="1.0"?>
<svg width="16" height="16" xmlns="http://www.w3.org/2000/svg" xmlns:svg="http://www.w3.org/2000/svg" class="bi bi-brightness-high-fill">

 <g class="layer">
  <title>Layer 1</title>
  <path d="m11.7,8.05a3.7,3.78 0 1 1 -7.41,0a3.7,3.78 0 0 1 7.41,0m-3.7,-7.55a0.46,0.47 0 0 1 0.46,0.47l0,1.89a0.46,0.47 0 0 1 -0.93,0l0,-1.89a0.46,0.47 0 0 1 0.46,-0.47m0,12.28a0.46,0.47 0 0 1 0.46,0.47l0,1.89a0.46,0.47 0 0 1 -0.93,0l0,-1.89a0.46,0.47 0 0 1 0.46,-0.47m7.41,-4.72a0.46,0.47 0 0 1 -0.46,0.47l-1.85,0a0.46,0.47 0 0 1 0,-0.94l1.85,0a0.46,0.47 0 0 1 0.46,0.47m-12.03,0a0.46,0.47 0 0 1 -0.46,0.47l-1.85,0a0.46,0.47 0 0 1 0,-0.94l1.85,0a0.46,0.47 0 0 1 0.46,0.47m9.87,-5.34a0.46,0.47 0 0 1 0,0.67l-1.31,1.33a0.46,0.47 0 1 1 -0.65,-0.66l1.31,-1.34a0.46,0.47 0 0 1 0.66,0m-8.52,8.69a0.46,0.47 0 0 1 0,0.66l-1.31,1.34a0.46,0.47 0 0 1 -0.66,-0.67l1.31,-1.33a0.46,0.47 0 0 1 0.65,0m8.52,2a0.46,0.47 0 0 1 -0.66,0l-1.31,-1.34a0.46,0.47 0 0 1 0.65,-0.66l1.31,1.33a0.46,0.47 0 0 1 0,0.67m-8.52,-8.69a0.46,0.47 0 0 1 -0.65,0l-1.31,-1.33a0.46,0.47 0 1 1 0.66,-0.67l1.31,1.34a0.46,0.47 0 0 1 0,0.66" fill="#ffffff" id="svg_1" stroke="#000000" stroke-width="0.1"/>
 </g>
</svg>